<svg xmlns="http://www.w3.org/2000/svg" width="64" height="64" viewBox="0 0 64 64" role="img" aria-label="SCEVA">
  <rect width="64" height="64" rx="12" fill="#1f2b28"/>
  <path d="M20 41.5c2.8 2.2 6.3 3.3 10.5 3.3 7.7 0 12.5-3.6 12.5-9.2 0-5-3.4-7.1-10.3-8.5-4.7-.9-6.6-1.7-6.6-3.8 0-2 1.9-3.3 5-3.3 3.1 0 5.8.9 8.2 2.8l2.7-4.5c-2.8-2.3-6.2-3.5-10.5-3.5-7 0-11.7 3.6-11.7 8.9 0 5.6 4.1 7.3 10.8 8.7 4.5.9 6.1 1.7 6.1 3.8 0 2.3-2.1 3.5-5.8 3.5-3.4 0-6.2-1-8.7-3.1L20 41.5Z" fill="#fbfcfa"/>
  <path d="M17 49h30" stroke="#4b7169" stroke-width="4" stroke-linecap="round"/>
</svg>
